<svg xmlns="http://www.w3.org/2000/svg" viewBox="0 0 1367 681">
	<path
		fill="currentColor"
		d="M496.531342,1.000000 C497.000000,141.776443 497.000000,282.552887 497.000000,423.999939 C494.862488,423.999939 493.096466,423.999939 491.330444,423.999939 C466.168610,423.999969 441.006348,424.074402 415.845367,423.926636 C411.658844,423.902069 408.908539,424.884308 406.467438,428.681671 C403.733002,432.935272 399.769226,436.403442 396.309021,440.184692 C385.365295,452.144012 374.365356,464.052185 363.465240,476.051056 C351.132629,489.626801 338.887085,503.281586 326.598877,516.897644 C314.199158,530.637207 301.783752,544.362610 289.393280,558.110474 C277.448364,571.363892 265.536652,584.647217 253.591766,597.900696 C241.201309,611.648560 228.409195,625.056091 216.474594,639.188232 C198.617554,660.333252 176.031952,673.223816 149.478806,679.791626 C147.429413,680.298584 145.380066,680.805725 143.165344,681.656372 C131.312439,682.000000 119.624878,682.000000 107.265854,681.640869 C104.615265,681.133972 102.585434,681.219543 100.664795,680.802368 C79.774139,676.264832 60.814590,667.928345 44.256584,653.962524 C27.227142,639.599060 15.075599,622.090088 7.769708,601.241882 C4.896863,593.043884 3.220978,584.426453 1.000001,576.000000 C1.000000,566.312439 1.000000,556.624878 1.359132,546.265869 C2.019522,543.316711 2.066695,540.970032 2.663553,538.772644 C6.341044,525.233582 10.048486,511.701233 13.921356,498.217010 C23.561972,464.651337 33.232548,431.093994 43.015560,397.569611 C49.873577,374.068573 57.027863,350.653992 63.884396,327.152496 C72.019890,299.267181 79.899902,271.307373 88.038208,243.422928 C94.211212,222.272232 100.699409,201.213608 106.896454,180.069794 C115.938164,149.220230 124.834053,118.327965 133.811615,87.459579 C142.194519,58.635868 150.602859,29.819563 159.000000,1.000000 C271.354218,1.000000 383.708466,1.000000 496.531342,1.000000 M186.892578,82.315903 C183.933426,92.334251 180.984421,102.355606 178.013123,112.370346 C171.045975,135.853104 163.984192,159.308167 157.114487,182.819382 C146.993622,217.457550 137.024063,252.139877 126.957108,286.793823 C118.667725,315.328766 110.375824,343.863129 102.000214,372.372833 C95.096001,395.874054 87.971336,419.310730 81.117638,442.826508 C71.933914,474.336884 63.070793,505.941376 53.751835,537.411255 C50.128162,549.648254 48.422962,561.968567 51.315510,574.386292 C56.969589,598.659119 70.752785,616.787964 93.891884,626.920593 C117.476334,637.248291 140.218643,634.826294 162.063919,621.522156 C172.398682,615.228149 179.704758,605.904846 187.538986,597.030396 C199.675949,583.282104 212.067749,569.758728 224.356857,556.144714 C239.857574,538.972900 255.375885,521.816956 270.863434,504.633270 C282.696503,491.504242 294.477844,478.328583 306.310669,465.199341 C321.797852,448.015320 337.280151,430.826630 352.827362,413.696960 C363.832855,401.571320 374.893066,389.493958 386.076202,377.532745 C387.301208,376.222443 389.492584,375.126831 391.248199,375.108246 C408.242188,374.928314 425.238800,375.000092 442.234680,374.999939 C444.009918,374.999908 445.785156,374.999939 447.637177,374.999939 C447.637177,266.706177 447.637177,159.015808 447.637177,51.000065 C445.631653,51.000065 443.987244,51.000065 442.342804,51.000065 C362.028961,51.000065 281.715118,51.000050 201.401260,51.000187 C200.568130,51.000187 199.542465,50.691746 198.940399,51.065243 C197.517273,51.948112 195.548752,52.915676 195.113220,54.270802 C192.216003,63.285233 189.664139,72.410660 186.892578,82.315903 z"
	/>
	<path
		fill="currentColor"
		d="M1222.468628,682.000000 C1220.404907,681.004395 1218.929565,679.498840 1217.196289,679.092041 C1199.687256,674.982544 1183.009399,668.276245 1170.005249,656.026978 C1153.209473,640.205994 1138.053101,622.639771 1122.262695,605.757996 C1115.145752,598.149170 1108.158325,590.417603 1101.189453,582.672180 C1086.828735,566.710938 1072.539062,550.685730 1058.181519,534.721619 C1051.325562,527.098450 1044.343140,519.589111 1037.484741,511.968079 C1023.010864,495.884857 1008.592407,479.751709 994.127808,463.660095 C987.607605,456.406433 981.060059,449.176849 974.471069,441.985657 C969.659058,436.733765 964.887268,431.432251 959.814026,426.441010 C958.440308,425.089539 956.040344,424.113037 954.104736,424.101654 C928.276611,423.949554 902.447327,423.999756 876.618286,423.999603 C875.310913,423.999603 874.003479,423.999603 872.000000,423.999603 C872.000000,283.077240 872.000000,142.507263 872.000000,1.468657 C984.354248,1.000000 1096.708496,1.000000 1209.533691,1.396713 C1210.683838,4.141793 1211.358398,6.491475 1212.042725,8.838326 C1220.355835,37.349663 1228.625244,65.873871 1236.999146,94.367371 C1243.901978,117.855858 1251.010620,141.283997 1257.878662,164.782562 C1265.341064,190.314240 1272.556030,215.918259 1280.018188,241.450043 C1286.885986,264.948486 1294.022095,288.368500 1300.888794,311.867310 C1309.357422,340.848267 1317.636719,369.884491 1326.058716,398.879211 C1334.025391,426.306152 1342.102295,453.701080 1350.069580,481.127899 C1354.803467,497.424255 1359.516235,513.728088 1364.035522,530.084656 C1365.662231,535.972107 1366.695679,542.023438 1368.000000,548.000000 C1368.000000,556.020935 1368.000000,564.041809 1367.637939,572.739441 C1366.264282,588.531799 1361.766235,602.770508 1354.822266,616.012085 C1347.479858,630.013611 1338.071655,642.557190 1325.767456,652.953430 C1314.444092,662.521057 1302.123047,670.114075 1288.217041,674.913330 C1279.679688,677.859802 1270.752319,679.676147 1262.000000,682.000000 C1248.979126,682.000000 1235.958130,682.000000 1222.468628,682.000000 M1094.513184,501.010345 C1101.303345,508.472076 1108.121704,515.908447 1114.878052,523.400696 C1129.815430,539.964966 1144.714478,556.563660 1159.643555,573.135437 C1166.283325,580.505920 1173.167114,587.668274 1179.567871,595.239807 C1189.270264,606.716858 1198.884888,618.134949 1212.637939,625.185059 C1225.969360,632.018860 1240.197632,634.645142 1254.766968,632.733826 C1272.354004,630.426575 1287.405884,622.478943 1299.547119,609.077209 C1311.631470,595.738159 1317.952881,580.156738 1318.926514,562.416504 C1319.679077,548.702026 1314.579468,535.989258 1310.881226,523.121033 C1304.160400,499.735016 1296.945312,476.491455 1290.113159,453.136749 C1279.979492,418.496216 1270.022705,383.804016 1259.947632,349.146301 C1250.648071,317.156616 1241.322876,285.174255 1231.948730,253.206360 C1226.709961,235.340881 1221.280640,217.531235 1216.058350,199.660980 C1207.813354,171.446838 1199.699951,143.194290 1191.474243,114.974487 C1185.715576,95.218658 1179.642578,75.550301 1174.232422,55.700523 C1173.121826,51.625534 1171.509766,50.942307 1167.905151,50.945499 C1087.412109,51.016758 1006.919128,51.000126 926.426086,51.000130 C924.683716,51.000130 922.941345,51.000126 921.324097,51.000126 C921.324097,159.428345 921.324097,267.012848 921.324097,375.000000 C938.778381,375.000000 955.928040,375.435303 973.036072,374.781464 C979.691956,374.527100 983.489258,377.516296 987.311462,381.819122 C1000.908875,397.125977 1014.509094,412.430786 1028.192871,427.660309 C1035.713013,436.029938 1043.467285,444.189026 1051.001709,452.546143 C1065.379639,468.494354 1079.675537,484.516296 1094.513184,501.010345 z"
	/>
	<path
		fill="currentColor"
		d="M717.737610,255.755615 C727.388123,247.328842 738.526184,242.557602 750.506897,240.141708 C769.700562,236.271301 788.710266,237.254776 807.317139,243.942368 C819.187256,248.208633 819.454895,248.398132 813.911377,259.262238 C809.587280,267.736389 805.046753,276.100037 800.335266,285.018524 C790.229004,279.174194 779.547913,275.936249 767.501221,277.880829 C754.734070,279.941742 746.906738,286.972137 743.164490,298.896118 C749.540283,297.042847 755.829529,294.327820 762.362183,293.472351 C788.103882,290.101288 815.511230,302.069214 820.560486,331.158081 C824.323853,352.838715 817.607178,372.229340 794.494934,384.195496 C780.577515,391.401123 765.990662,393.017883 750.522705,391.209076 C739.022400,389.864227 728.564270,386.520599 718.780701,380.431824 C704.263489,371.396942 696.649353,357.665070 693.196716,341.666687 C689.066833,322.529602 689.834839,303.392334 696.989075,284.898651 C701.366333,273.583374 707.541260,263.432129 717.737610,255.755615 M744.012146,339.942383 C744.008179,340.937256 743.990234,341.932281 744.002686,342.926941 C744.088684,349.809418 748.391357,354.966461 755.552124,356.779053 C760.824829,358.113770 768.282471,355.063690 770.881165,350.205444 C773.974609,344.422424 773.190735,337.024414 769.045715,332.468597 C762.570068,325.351166 747.922363,326.371796 744.012146,339.942383 z"
	/>
	<path
		fill="currentColor"
		d="M637.162781,348.978760 C652.170349,348.993225 666.787964,348.993225 681.700500,348.993225 C681.700500,362.366058 681.700500,375.284576 681.700500,388.602661 C642.723389,388.602661 603.700989,388.602661 564.035950,388.602661 C564.035950,378.546692 563.035645,368.304565 564.508972,358.431549 C565.132446,354.253357 570.761475,350.645233 574.462585,347.145203 C579.850098,342.050354 585.625122,337.368042 591.102356,332.364624 C600.264832,323.994720 609.515076,315.705444 618.345520,306.994080 C622.974243,302.427765 627.232666,297.364838 628.035522,290.322815 C629.203735,280.075073 618.682800,276.813843 610.373657,278.274017 C603.563538,279.470734 599.063232,283.806641 594.919861,288.902313 C594.029053,289.997772 591.558167,291.101532 590.569763,290.627625 C578.601868,284.889038 566.775635,278.855164 554.630554,272.756531 C566.255859,252.131607 583.684937,241.816711 606.341858,238.874496 C620.871460,236.987671 634.955688,237.990036 648.555786,243.104858 C663.096741,248.573502 673.745667,258.270874 677.432739,273.964478 C681.399902,290.850311 677.054565,306.012115 665.614014,318.641663 C657.001404,328.149384 647.198792,336.575928 638.018799,345.578522 C637.242920,346.339417 637.171509,347.818726 637.162781,348.978760 z"
	/>
	<path
		fill="currentColor"
		d="M706.000000,187.000000 C695.869751,187.000000 686.239563,187.000000 676.022217,187.000000 C676.022217,176.968307 675.704529,167.342896 676.257996,157.767807 C676.387451,155.528473 679.239929,153.211838 681.237671,151.360260 C686.681396,146.314865 692.453430,141.623230 697.886597,136.566986 C709.781006,125.497704 721.762634,114.505173 733.223816,102.998360 C736.390808,99.818756 738.464966,95.148666 739.951538,90.790955 C742.217224,84.149254 738.150330,77.982315 731.434509,77.069023 C721.809082,75.760056 713.703369,78.731369 708.149597,86.872192 C706.212708,89.711319 704.847900,90.049583 701.892151,88.515640 C690.683960,82.698845 679.335083,77.152977 667.827759,71.400238 C674.328857,57.687328 684.966431,48.917698 698.281067,43.035282 C711.604736,37.148876 725.757141,35.967209 739.947083,37.148796 C757.860596,38.640427 774.172241,44.325630 784.704407,60.273880 C793.501648,73.594879 793.128967,88.089798 787.721619,102.314064 C782.591309,115.809280 772.057861,125.319839 761.240662,134.429138 C756.488647,138.430878 752.171326,142.948746 746.938721,147.913345 C763.331909,147.913345 778.866882,147.913345 794.696106,147.913345 C794.696106,161.029694 794.696106,173.620895 794.696106,187.000000 C765.327454,187.000000 735.913696,187.000000 706.000000,187.000000 z"
	/>
	<path
		fill="currentColor"
		d="M584.000000,59.999149 C584.000000,53.202332 584.000000,46.904987 584.000000,40.306843 C609.359558,40.306843 634.283997,40.306843 659.604858,40.306843 C659.604858,88.967758 659.604858,137.676071 659.604858,186.692719 C642.975281,186.692719 626.384033,186.692719 609.176758,186.692719 C609.176758,150.701843 609.176758,114.655685 609.176758,78.176529 C600.647705,78.176529 592.715515,78.176529 584.000000,78.176529 C584.000000,72.010620 584.000000,66.254623 584.000000,59.999149 z"
	/>
	<path
		fill="currentColor"
		d="M640.707703,528.310486 C642.770569,531.696106 644.627197,534.772583 646.965637,538.647217 C650.519470,532.674683 653.805542,527.166748 657.077209,521.650269 C661.672424,513.901794 666.143127,506.074951 670.956482,498.464630 C671.773682,497.172577 673.971436,496.403625 675.658813,496.098816 C677.870667,495.699341 680.209106,496.000793 682.742310,496.000793 C682.742310,518.442017 682.742310,540.363525 682.742310,562.642944 C678.957092,562.642944 675.245178,562.642944 670.625854,562.642944 C670.625854,549.654419 670.625854,536.793274 670.625854,523.932129 C670.132385,523.804260 669.638916,523.676331 669.145386,523.548401 C665.858643,528.818970 662.529480,534.063660 659.299133,539.368530 C656.915771,543.282532 654.631042,547.257751 652.356628,551.236755 C649.299805,556.584595 644.248291,556.642517 641.083679,551.313416 C635.988586,542.733521 630.928955,534.132385 625.806702,525.568787 C625.250854,524.639526 624.380310,523.898438 623.011963,522.334045 C623.011963,536.292725 623.011963,549.342102 623.011963,562.692017 C618.986572,562.692017 615.391357,562.692017 611.396484,562.692017 C611.396484,540.722290 611.396484,518.680969 611.402954,496.638489 C620.226196,494.850342 620.576294,494.946686 625.332458,502.739990 C630.449036,511.123718 635.450073,519.577881 640.707703,528.310486 z"
	/>
	<path
		fill="currentColor"
		d="M826.000000,530.098083 C826.000000,541.195679 826.000000,551.809998 826.000000,562.708862 C821.619751,562.708862 817.695740,562.708862 813.384277,562.708862 C813.384277,540.705566 813.384277,518.679382 813.384277,496.257294 C818.371704,496.347870 822.964783,494.488800 827.205505,500.315613 C836.560181,513.169128 847.055725,525.192505 857.104675,537.539307 C857.382935,537.881226 857.876160,538.048218 858.848145,538.662903 C858.848145,524.371887 858.848145,510.523193 858.848145,496.341400 C863.402344,496.341400 867.439636,496.341400 871.740967,496.341400 C871.740967,518.433533 871.740967,540.339050 871.740967,562.234802 C862.900085,564.477539 860.265198,563.120789 853.216370,553.633484 C849.013733,547.976990 844.448975,542.588562 840.019531,537.101868 C835.685303,531.733093 831.316101,526.392456 826.000000,519.856506 C826.000000,523.939209 826.000000,526.776978 826.000000,530.098083 z"
	/>
	<path
		fill="currentColor"
		d="M971.094482,550.052734 C972.345093,548.448730 973.802551,546.936401 973.885132,545.352478 C974.177124,539.747742 973.998901,534.118530 973.998901,528.256226 C978.455444,528.256226 982.380981,528.256226 986.973999,528.256226 C986.973999,536.934326 987.028198,545.534729 986.886597,554.131836 C986.873047,554.955627 985.804321,556.117554 984.945007,556.512573 C980.229797,558.680237 975.578308,561.840088 970.625488,562.473267 C957.106628,564.201355 943.690491,563.837097 933.741333,552.210999 C925.690613,542.803162 923.291809,531.901733 926.536804,520.054016 C929.766602,508.261566 937.446289,500.044922 949.357544,497.217896 C959.850220,494.727570 970.660767,494.371216 980.516479,500.269592 C983.168823,501.856903 985.455994,504.054260 987.927734,505.984833 C984.864563,509.088623 982.120605,511.868958 979.375854,514.650085 C970.529358,505.792847 957.058105,504.476593 947.136902,511.878815 C939.271912,517.746887 937.991516,525.773926 939.178589,534.352112 C940.210266,541.807129 944.936035,547.156616 952.046692,549.897888 C958.158569,552.254272 964.428894,553.156982 971.094482,550.052734 z"
	/>
	<path
		fill="currentColor"
		d="M441.977295,530.296387 C441.994232,538.095520 442.119934,545.424744 441.894470,552.743164 C441.849091,554.216125 440.849396,556.316956 439.648926,556.996521 C426.217743,564.600220 412.325989,565.743591 398.194641,559.019531 C380.316833,550.512695 375.642700,525.384155 387.168854,509.433289 C393.842834,500.197205 403.124481,495.901093 414.650665,495.913452 C423.186676,495.922638 431.329620,496.381378 438.559692,501.778931 C444.041534,505.871399 444.259399,506.186920 439.617035,510.928345 C438.339264,512.233276 437.278900,513.751160 436.055939,515.248291 C429.946747,510.279663 423.997559,506.442963 416.501678,507.048309 C403.115509,508.129364 394.052124,516.505615 394.190979,529.748291 C394.335175,543.500549 404.518433,551.557983 417.500977,551.922607 C420.231567,551.999329 423.078369,551.391602 425.709991,550.577026 C428.390656,549.747253 430.520172,548.465637 430.132324,544.628479 C429.601379,539.376038 429.999634,534.029602 429.999634,527.223389 C434.348511,528.168274 438.155457,528.995422 441.977295,530.296387 z"
	/>
	<path
		fill="currentColor"
		d="M507.007996,523.951050 C510.687805,515.512085 514.374268,507.488159 517.812378,499.359222 C518.851135,496.903137 520.230225,496.291016 522.852600,495.847198 C530.656189,494.526581 533.457520,498.454498 536.241455,505.080414 C544.223999,524.079468 553.137512,542.687317 561.667847,561.456787 C561.786621,561.718140 561.682678,562.080750 561.682678,562.990906 C557.929993,562.990906 554.171326,563.129578 550.435425,562.899414 C549.423950,562.837097 548.410522,561.738586 547.535950,560.960632 C547.083069,560.557861 546.787354,559.843872 546.666260,559.222656 C544.410889,547.653687 536.681519,545.318542 526.377869,546.938843 C523.779114,547.347534 520.980713,547.416443 518.414307,546.918579 C511.831604,545.641541 508.871368,548.741516 506.634552,554.567017 C502.940125,564.188843 501.406433,564.624756 489.615601,562.247803 C495.423004,549.520630 501.171173,536.923279 507.007996,523.951050 M527.424805,537.000000 C530.364563,537.000000 533.304321,537.000000 537.027161,537.000000 C533.132874,528.084351 529.505859,519.780640 525.570557,510.771149 C521.714478,519.848938 518.208740,528.102051 514.429077,537.000000 C519.186584,537.000000 522.825195,537.000000 527.424805,537.000000 z"
	/>
	<path
		fill="currentColor"
		d="M754.000000,540.000000 C754.000000,547.780579 754.000000,555.061096 754.000000,562.668762 C749.582947,562.668762 745.551208,562.668762 741.257568,562.668762 C741.257568,540.594177 741.257568,518.718567 741.257568,496.421051 C745.233643,496.421051 749.267883,496.421051 754.000000,496.421051 C754.000000,510.728302 754.000000,525.114136 754.000000,540.000000 z"
	/>
	<path
		fill="currentColor"
		d="M777.814453,634.000000 C761.943970,636.146790 754.903137,621.610107 759.022400,610.205688 C761.416809,603.576538 770.808472,597.898132 777.667969,599.050720 C787.548035,600.710754 793.854248,607.192078 793.999451,615.835815 C794.178772,626.505310 787.838013,633.826843 777.814453,634.000000 M782.813477,604.340576 C777.078369,601.910095 771.326904,601.916260 766.615234,606.108215 C762.650085,609.635986 760.397705,614.258118 761.955688,620.053833 C763.741882,626.698181 768.479675,630.785950 775.236633,630.998352 C782.086365,631.213562 787.959656,627.394836 789.780396,621.542053 C791.732788,615.266235 789.155212,608.496643 782.813477,604.340576 z"
	/>
	<path
		fill="currentColor"
		d="M690.162598,630.304321 C681.999146,636.363892 673.071472,633.191956 664.272217,634.025391 C664.272217,622.578735 664.272217,611.660706 664.272217,600.479187 C671.183105,600.479187 678.466492,599.022400 684.859131,600.788879 C697.350342,604.240662 700.024597,620.499756 690.162598,630.304321 M686.520874,628.109558 C691.494995,625.640747 692.566650,620.813293 692.428711,616.196899 C692.259766,610.539917 689.584717,605.453186 683.522705,604.146240 C678.331970,603.026978 672.885925,603.091858 667.334595,602.614319 C667.334595,612.580627 667.334595,621.603394 667.334595,632.083069 C673.918457,630.841064 679.912964,629.710266 686.520874,628.109558 z"
	/>
	<path
		fill="currentColor"
		d="M828.458496,633.992920 C825.941406,633.119324 823.757385,632.432861 821.841309,631.295044 C821.032776,630.814819 820.788940,629.383545 820.288452,628.384583 C821.396790,628.325256 822.565857,628.008972 823.602417,628.253662 C827.013977,629.059204 830.327820,630.420288 833.772583,630.905823 C837.717896,631.461670 840.851318,629.192017 841.578430,625.528442 C842.347168,621.655212 838.469666,620.550720 835.719666,619.407043 C832.434998,618.040955 828.901001,617.288147 825.524841,616.124939 C820.965881,614.554321 820.498352,610.824707 821.049988,606.815186 C821.583435,602.937134 824.001770,600.350403 827.837952,600.112732 C831.939697,599.858582 836.122742,600.218384 840.205627,600.780457 C841.455566,600.952576 842.492004,602.675415 843.626221,603.688110 C842.025146,603.763367 840.415222,603.981445 838.824768,603.883728 C835.697083,603.691589 832.422974,602.618958 829.511902,603.267761 C827.442322,603.729126 824.586304,606.308533 824.437927,608.134094 C824.293396,609.913147 826.774170,612.637573 828.766296,613.689209 C831.875244,615.330505 835.573914,615.822876 838.969421,616.960876 C843.714905,618.551270 845.467224,621.592896 845.003601,626.809998 C844.559448,631.808899 840.825439,633.183960 836.876343,633.901917 C834.296936,634.370728 831.563965,633.994995 828.458496,633.992920 z"
	/>
	<path
		fill="currentColor"
		d="M523.110718,617.659302 C527.493835,620.717590 528.007385,624.782349 526.456238,628.877319 C524.855225,633.103699 520.899170,634.065613 516.715759,633.996338 C512.157593,633.920776 507.342987,634.815796 503.623688,631.160034 C502.835083,630.384949 502.630890,629.015320 502.230438,628.088562 C507.363342,629.172607 511.717529,630.882141 515.995239,630.708496 C518.693665,630.598877 522.691284,628.210754 523.576355,625.882935 C524.850159,622.532654 521.072876,620.707092 518.091919,619.616638 C514.440552,618.280884 510.481812,617.621216 507.048523,615.890564 C501.480743,613.083862 501.305908,604.178650 506.661591,601.201050 C512.548279,597.928162 518.641907,598.664001 524.554504,601.354004 C525.144226,601.622253 525.283752,602.879944 525.632263,603.678467 C524.679993,603.898071 523.703735,604.376892 522.779663,604.291443 C519.174255,603.958008 515.482544,602.746887 512.027893,603.255310 C509.855499,603.574890 506.858734,606.077698 506.349792,608.127075 C505.548462,611.353760 508.435272,613.179810 511.594391,614.031921 C515.365601,615.049011 519.084961,616.258423 523.110718,617.659302 z"
	/>
	<path
		fill="currentColor"
		d="M606.999939,605.220215 C607.306641,611.782410 607.042725,617.969849 608.087036,623.927979 C609.053040,629.439453 614.076111,631.843811 620.235535,630.979736 C624.461243,630.386963 627.790649,626.539978 627.948303,621.502197 C628.140930,615.347656 627.874512,609.177734 628.117004,603.026672 C628.162903,601.860535 629.657410,600.751587 630.483521,599.616211 C631.127563,599.919067 631.771545,600.221863 632.415588,600.524658 C631.949097,608.562317 631.895447,616.652405 630.885071,624.621094 C630.080872,630.962769 625.818176,633.958679 619.567932,633.999817 C607.393188,634.079956 604.000366,630.731018 604.000061,618.633118 C603.999878,612.512390 604.000000,606.391724 604.000000,600.270996 C604.670044,600.154175 605.340088,600.037354 606.010071,599.920532 C606.340027,601.528809 606.669922,603.137146 606.999939,605.220215 z"
	/>
	<path
		fill="currentColor"
		d="M558.097290,600.000000 C564.989685,600.000000 571.396423,600.000000 577.803101,600.000000 C577.869324,600.573181 577.935486,601.146362 578.001709,601.719543 C574.783447,604.667969 570.207764,601.850037 566.223999,603.568909 C566.223999,613.280579 566.223999,623.197571 566.223999,633.001404 C562.146118,634.022766 562.045959,634.023438 562.022278,630.463196 C561.962708,621.511841 562.002502,612.559875 562.002502,603.294373 C557.707581,603.032043 553.823914,602.794739 549.940247,602.557495 C549.988770,601.815247 550.037354,601.072937 550.085876,600.330627 C552.594482,600.220398 555.103027,600.110229 558.097290,600.000000 z"
	/>
	<path
		fill="currentColor"
		d="M725.000000,606.161499 C725.000000,604.041016 725.000000,602.397888 725.000000,600.754822 C725.396118,600.410583 725.792236,600.066406 726.188354,599.722168 C727.122314,600.709717 728.848511,601.681824 728.868042,602.687195 C729.067993,612.946716 728.990356,623.211609 728.990356,633.349060 C725.444458,634.837402 724.955444,633.181641 724.977966,630.546936 C725.046021,622.578064 725.000977,614.608276 725.000000,606.161499 z"
	/>
	<path
		fill="currentColor"
		d="M337.959839,141.000000 C341.420868,141.000000 344.389191,141.000000 347.790619,141.000000 C347.790619,157.322784 347.790619,173.251495 347.790619,189.791534 C363.926849,189.791534 379.645599,189.791534 395.677246,189.791534 C395.677246,206.326660 395.677246,222.251572 395.677246,238.793274 C380.071381,238.793274 364.352631,238.793274 348.205872,238.793274 C348.205872,255.326218 348.205872,271.255005 348.205872,287.590149 C331.730774,287.590149 315.688171,287.590149 299.204163,287.590149 C299.204163,271.672028 299.204163,255.743225 299.204163,239.203278 C282.734192,239.203278 266.682434,239.203278 250.320145,239.203278 C250.320145,222.668152 250.320145,206.743195 250.320145,190.201538 C266.267883,190.201538 282.319397,190.201538 298.799316,190.201538 C298.799316,173.668579 298.799316,157.739700 298.799316,141.000000 C311.969025,141.000000 324.718048,141.000000 337.959839,141.000000 z"
	/>
	<path
		fill="currentColor"
		d="M1026.241821,249.260681 C1035.093750,241.131134 1046.057251,239.274872 1055.519043,243.178696 C1068.995361,248.738739 1072.974609,260.499847 1071.843628,270.663666 C1070.668091,281.227539 1064.684937,289.175873 1054.516602,292.590149 C1044.803467,295.851532 1035.622192,294.187683 1027.488403,287.110168 C1017.454041,278.379028 1015.893311,260.167603 1026.241821,249.260681 z"
	/>
	<path
		fill="currentColor"
		d="M1092.904541,188.571045 C1108.014404,185.721054 1120.588745,194.964401 1124.107788,206.829681 C1128.213013,220.671738 1119.942749,236.403412 1106.078613,239.892944 C1089.436157,244.081772 1073.175659,234.139450 1072.272583,214.876038 C1071.781128,204.393494 1077.442505,192.139526 1092.904541,188.571045 z"
	/>
	<path
		fill="currentColor"
		d="M1018.012451,218.978333 C1015.521240,233.450958 1004.841858,240.603622 992.493835,240.831940 C979.808411,241.066498 969.324341,233.576996 966.420715,220.370758 C963.406921,206.663681 969.805481,194.605881 983.369324,189.434708 C996.030396,184.607697 1010.739624,190.925140 1015.602112,202.078949 C1017.918701,207.392776 1020.001221,212.652390 1018.012451,218.978333 z"
	/>
	<path
		fill="currentColor"
		d="M1058.646973,138.143860 C1068.353882,144.440033 1073.359497,153.114868 1071.802246,164.194351 C1070.272583,175.077942 1064.515625,183.865387 1053.064331,186.280823 C1037.450562,189.574234 1025.211182,184.639114 1020.128479,168.442307 C1015.124634,152.496811 1026.059326,138.073395 1040.172974,135.220078 C1046.245117,133.992493 1052.645264,134.639313 1058.646973,138.143860 z"
	/>
</svg>
