<svg version="1.1" xmlns="http://www.w3.org/2000/svg" width="100%" viewBox="0 0 4726 1214">
	<g id="car">
		<path fill="currentcolor" id="car-top" d="M2151.062744,2.000000 C2152.028809,3.022637 2151.946533,4.918785 2152.102539,4.938607 C2155.052490,5.313081 2158.030029,5.628078 2161.002930,5.640452 C2207.569336,5.834255 2253.582520,11.253219 2299.368408,19.481812 C2342.574219,27.246664 2384.885986,38.317741 2426.531250,52.053997 C2465.380371,64.867958 2502.506348,81.942078 2539.968750,98.182419 C2626.166748,135.550537 2712.394531,172.849960 2798.578369,210.251144 C2900.907959,254.659256 3003.201172,299.150940 3105.516113,343.592896 C3133.223389,355.627930 3160.914551,367.701935 3188.713867,379.521149 C3192.563965,381.158112 3196.980713,382.122711 3201.161865,382.218567 C3238.408203,383.072662 3275.662109,383.572571 3312.909912,384.360687 C3336.166504,384.852753 3359.418213,385.617859 3382.669189,386.342163 C3401.925293,386.942047 3421.180664,387.575745 3440.430420,388.347534 C3471.942383,389.610962 3503.454590,390.887634 3534.956787,392.369690 C3559.475830,393.523254 3583.988281,394.864655 3608.489014,396.363800 C3638.931641,398.226501 3669.376709,400.105347 3699.788330,402.405579 C3731.167725,404.778961 3762.548096,407.271240 3793.855713,410.428741 C3833.705811,414.447906 3873.491699,419.114929 3913.289551,423.640442 C3943.562988,427.082825 3973.853516,430.421692 4004.061279,434.379333 C4045.416016,439.797302 4086.792480,445.164398 4127.988770,451.642273 C4175.111816,459.052185 4222.179688,466.967224 4269.030762,475.919800 C4324.449219,486.509369 4379.140137,500.235657 4433.023438,517.161072 C4484.783203,533.419434 4535.233398,552.786194 4583.544434,577.583923 C4635.356934,604.179382 4683.052734,636.474731 4723.860840,678.377319 C4724.786133,679.326965 4725.837402,680.153992 4727.415039,680.519165 C4728.000000,681.500000 4728.000000,683.000000 4728.000000,685.250000 C4708.343262,685.890076 4688.685547,685.670593 4669.029785,685.748535 C4664.213867,685.767578 4660.118164,684.712280 4655.902344,682.272522 C4593.432129,646.119812 4526.548340,620.553406 4457.689941,599.662598 C4383.917969,577.280945 4308.798340,560.720520 4232.842773,548.016052 C4187.446289,540.422974 4141.841797,534.005005 4096.234375,527.761169 C4062.450928,523.136047 4028.531738,519.463806 3994.636963,515.692932 C3957.450928,511.555939 3920.250977,507.505920 3883.005859,503.952362 C3850.020752,500.805237 3816.973633,498.284943 3783.938232,495.687103 C3756.513428,493.530426 3729.066895,491.651276 3701.628174,489.672302 C3676.841064,487.884521 3652.064209,485.918274 3627.259277,484.423248 C3607.040039,483.204620 3586.782715,482.631500 3566.548096,481.652283 C3545.346680,480.626312 3524.155029,479.398163 3502.953125,478.380463 C3494.646729,477.981750 3486.323730,477.926788 3478.008789,477.694244 C3454.086670,477.025269 3430.166016,476.295441 3406.242432,475.683197 C3377.988525,474.960144 3349.731689,474.365082 3321.477539,473.658752 C3296.554443,473.035706 3271.636719,472.147217 3246.710449,471.711029 C3200.459229,470.901642 3154.202881,470.391327 3107.950439,469.652283 C3071.694580,469.072998 3035.440674,468.360535 2999.187012,467.662933 C2966.264893,467.029449 2933.343018,466.372467 2900.422607,465.658203 C2872.166260,465.045135 2843.911621,464.358124 2815.657227,463.663696 C2789.734619,463.026611 2763.812012,462.375244 2737.891357,461.656738 C2715.967529,461.049011 2694.046387,460.344696 2672.124268,459.667664 C2650.868408,459.011200 2629.611572,458.374634 2608.357666,457.655273 C2590.432617,457.048615 2572.507812,456.424530 2554.589844,455.649536 C2526.405762,454.430450 2498.229980,453.017792 2470.045654,451.803375 C2451.129150,450.988281 2432.195312,450.553070 2413.285400,449.617310 C2396.074951,448.765656 2378.890625,447.407501 2361.687256,446.396545 C2354.715576,445.986847 2347.720215,445.998962 2340.743408,445.658142 C2314.228027,444.362854 2287.704590,443.194702 2261.205811,441.614044 C2231.421387,439.837372 2201.648438,437.832275 2171.893066,435.622314 C2138.517822,433.143494 2105.140869,430.618134 2071.814453,427.568756 C2039.828247,424.642029 2007.883789,421.216461 1975.959717,417.661713 C1901.840332,409.408447 1827.915161,399.770050 1755.400146,381.785767 C1736.441895,377.084015 1717.958008,370.468750 1698.831055,363.757416 C1699.131836,362.318207 1699.857788,361.853882 1700.583862,361.389587 C1722.818604,362.370361 1745.054321,363.327972 1767.287720,364.337677 C1796.135010,365.647705 1824.978760,367.033813 1853.827148,368.319519 C1870.413330,369.058777 1887.003174,369.725006 1903.595337,370.314636 C1924.182251,371.046265 1944.771729,371.710968 1965.362549,372.319977 C1989.616333,373.037262 2013.870850,373.759033 2038.128906,374.306915 C2071.714844,375.065430 2105.302002,375.854187 2138.892822,376.289032 C2201.476807,377.099182 2264.062256,378.070526 2326.649414,378.256012 C2541.906250,378.893921 2757.163574,379.221283 2972.420898,379.666016 C2975.609131,379.672607 2978.797607,379.666840 2982.348633,378.215729 C2979.229004,376.735443 2976.152100,375.155334 2972.983154,373.789276 C2869.320312,329.102631 2765.645752,284.442963 2661.979004,239.765625 C2589.105957,208.359436 2516.324707,176.739029 2443.346191,145.580414 C2389.111328,122.424408 2332.812256,106.051727 2274.770508,95.504166 C2242.776367,89.690018 2210.673340,85.069687 2178.164307,83.687523 C2144.656250,82.262871 2111.150391,80.600380 2077.625732,79.777397 C2040.365479,78.862717 2003.084717,78.443512 1965.812988,78.455864 C1942.557373,78.463570 1919.291504,79.419853 1896.049438,80.404953 C1871.856445,81.430351 1847.634155,82.393509 1823.517822,84.465576 C1777.330078,88.434021 1731.152710,92.664650 1685.076538,97.743073 C1647.554565,101.878647 1610.036133,106.486450 1572.787964,112.553726 C1525.369141,120.277710 1478.099121,129.060287 1430.993530,138.524719 C1373.735962,150.028854 1317.094849,164.259308 1260.883911,180.146255 C1258.011963,180.957977 1254.967651,181.471634 1252.345581,182.799362 C1243.273071,187.393326 1238.173584,196.514526 1241.347534,204.671448 C1250.150879,227.295990 1260.937134,248.708496 1282.047363,262.263123 C1293.739258,269.770325 1306.638184,275.440826 1319.155151,281.610168 C1341.197998,292.474701 1363.365112,303.087128 1386.112549,314.111603 C1382.896973,317.880859 1379.562012,316.144379 1376.688110,315.644714 C1357.750122,312.351715 1338.825195,308.977692 1319.925171,305.472961 C1282.130371,298.464386 1244.365601,291.292908 1206.567383,284.302917 C1161.263428,275.924866 1115.932983,267.690125 1070.622314,259.348328 C1028.576782,251.607697 986.543213,243.801880 944.502380,236.035629 C902.787231,228.329590 861.069275,220.639221 819.353210,212.938065 C788.718567,207.282623 758.082336,201.636093 727.456665,195.932663 C725.034180,195.481522 722.688965,194.615982 720.377686,192.282654 C765.401917,179.631424 810.280823,166.431625 855.482971,154.451752 C931.814209,134.221771 1008.435181,115.070412 1085.930420,99.763924 C1151.284180,86.855583 1216.665527,73.991211 1282.294922,62.607582 C1329.922607,54.346382 1377.938477,48.265900 1425.851318,41.725960 C1458.654175,37.248482 1491.540161,33.306110 1524.457153,29.758036 C1559.361328,25.995777 1594.330811,22.807936 1629.301147,19.700125 C1655.045776,17.412216 1680.826904,15.499763 1706.611938,13.711123 C1729.109741,12.150504 1751.626343,10.798830 1774.151733,9.710955 C1805.655151,8.189483 1837.176514,7.042897 1868.683472,5.590761 C1871.495728,5.461147 1874.258911,4.266585 1876.522461,2.783305 C1967.375122,2.000000 2058.750244,2.000000 2151.062744,2.000000 z"/>
		<path fill="currentcolor" id="car-bottom" d="M1435.996826,492.080811 C1383.088013,483.828827 1330.989746,476.083557 1279.010376,467.610596 C1221.465820,458.230530 1164.026733,448.202789 1106.547363,438.423584 C1054.281372,429.531311 1002.001953,420.714844 949.767700,411.639069 C906.680115,404.152557 863.671570,396.211487 820.587708,388.703125 C784.028198,382.331787 747.407654,376.310974 710.820435,370.097778 C680.772400,364.995056 650.760376,359.674072 620.683472,354.749023 C588.969299,349.555939 557.213989,344.606293 525.445740,339.752899 C487.475494,333.951935 449.501373,328.162140 411.473724,322.755890 C384.593750,318.934479 357.637024,315.635925 330.686737,312.331024 C306.362305,309.348114 282.000854,306.667053 257.651703,303.888184 C256.727997,303.782745 255.762100,304.046661 253.902802,304.227081 C255.617462,314.784454 257.263031,325.100220 258.979370,335.404236 C259.795502,340.303894 261.064423,345.148529 261.569824,350.075348 C262.614319,360.257050 260.579712,369.818451 255.400116,378.791107 C217.188507,444.985229 178.933228,511.154724 140.957031,577.483887 C122.463562,609.784546 111.182152,644.785400 103.842033,681.139832 C103.590019,682.388000 103.314468,683.631409 102.973747,685.235596 C91.479233,685.235596 80.266670,685.235596 67.710548,685.235596 C67.710548,678.323120 67.498184,671.462280 67.744728,664.617920 C69.448402,617.322388 80.749695,572.346130 98.652222,528.572571 C123.160835,468.646454 146.302521,408.161774 170.178345,347.975281 C171.769531,343.964203 171.829086,340.724091 170.226593,336.646851 C160.996140,313.161560 152.293594,289.468689 143.055450,265.986511 C139.372467,256.624817 138.517731,247.413589 141.175705,237.722076 C142.839386,231.655991 143.857697,225.414429 145.472748,219.333191 C148.864349,206.562607 156.635315,200.258926 169.849548,200.441864 C179.777283,200.579330 189.709229,201.563660 199.606369,202.513794 C218.392639,204.317322 237.173370,206.208618 255.923752,208.349258 C287.165100,211.915909 318.395447,215.588394 349.602692,219.440994 C376.226044,222.727707 402.861359,225.982895 429.400269,229.873474 C470.694244,235.927078 511.957306,242.223404 553.147278,248.945221 C593.689636,255.561356 634.165710,262.606628 674.595154,269.884644 C715.374329,277.225586 756.101501,284.871887 796.776855,292.768585 C849.175415,302.941223 901.514465,313.421997 953.851990,323.905731 C1014.977112,336.149658 1076.058350,348.613312 1137.185791,360.845093 C1193.104858,372.034607 1249.010010,383.303986 1305.013184,394.059967 C1367.826294,406.123810 1430.692383,417.929321 1493.632324,429.311249 C1534.057861,436.621704 1574.627563,443.153992 1615.188110,449.691589 C1661.619263,457.175415 1708.061768,464.618195 1754.593140,471.440155 C1791.949707,476.916962 1829.417725,481.668884 1866.887451,486.331116 C1916.167603,492.462921 1965.459229,498.545044 2014.819824,503.976379 C2051.365723,507.997620 2088.022705,511.020050 2124.642822,514.346924 C2148.067139,516.474915 2171.502930,518.503784 2194.955322,520.293335 C2223.379150,522.462280 2251.818848,524.435913 2280.264648,526.298828 C2303.100586,527.794312 2325.948975,529.125366 2348.803955,530.300354 C2377.309326,531.765808 2405.822754,533.086914 2434.340088,534.296570 C2453.921875,535.127258 2473.513672,535.755615 2493.105713,536.306458 C2520.024170,537.063477 2546.944092,538.003479 2573.869141,538.260498 C2641.801270,538.908997 2709.736816,539.215820 2777.670898,539.681946 C2779.632324,539.695374 2781.592529,539.959167 2783.734375,541.765991 C2773.505859,543.089478 2763.299805,544.626831 2753.044922,545.697632 C2718.124023,549.344055 2683.196289,552.934265 2648.249512,556.323303 C2631.762695,557.922180 2615.233398,559.108582 2598.711426,560.315613 C2573.262939,562.174927 2547.807373,563.936401 2522.347900,565.635681 C2516.046387,566.056213 2509.718262,566.088135 2503.402100,566.280762 C2480.814209,566.969849 2458.230713,567.982666 2435.637939,568.268433 C2383.704346,568.925293 2331.766846,569.530640 2279.830811,569.551147 C2251.576660,569.562317 2223.319580,568.430847 2195.068848,567.629395 C2178.807373,567.168152 2162.545166,566.538940 2146.302979,565.627686 C2117.507080,564.012085 2088.728760,562.080200 2059.937988,560.367126 C2043.371216,559.381348 2026.777710,558.798157 2010.226440,557.613403 C1989.747681,556.147644 1969.303955,554.197632 1948.837402,552.551453 C1937.598755,551.647461 1926.327637,551.123413 1915.100464,550.104309 C1886.735107,547.529724 1858.359131,545.031189 1830.037842,542.025818 C1789.211182,537.693359 1748.414795,533.062744 1707.632446,528.327820 C1672.760498,524.279053 1637.884888,520.216003 1603.086304,515.591980 C1562.722168,510.228424 1522.442139,504.232666 1482.121826,498.538483 C1467.040039,496.408539 1451.947510,494.355011 1435.996826,492.080811 z"/>
		<path fill="#BBFF00" id="car-accent" d="M212.666260,616.931519 C226.783890,594.388611 240.849564,571.812927 255.030472,549.309875 C281.446625,507.391174 308.016571,465.568939 334.285736,423.558472 C337.951904,417.695435 341.517242,416.149689 348.726807,417.287842 C395.876373,424.731232 443.157471,431.337311 490.373627,438.364532 C538.896179,445.586243 587.395020,452.966858 635.898987,460.312653 C639.150146,460.805054 642.357056,461.589966 646.007202,462.323761 C644.728333,469.043213 639.378540,472.178894 634.938599,475.765137 C625.553772,483.345673 614.009521,486.006226 602.541260,487.639557 C586.809998,489.880005 570.923889,491.357361 555.052917,492.235687 C498.933380,495.341431 443.225525,501.048981 389.482147,518.650818 C333.303223,537.050293 282.357361,565.343933 235.812988,601.672913 C229.004974,606.986694 222.303726,612.437195 214.529785,617.699646 C213.226425,617.360474 212.946335,617.145996 212.666260,616.931519 z"/>
	</g>
  <g id="text">
		<g id="text-fill">
			<path fill="currentcolor" id="letter-m" d="M2.000000,1048.750000 C5.729333,1049.019043 5.384739,1045.893188 6.106068,1043.918457 C16.697357,1014.924133 27.289892,985.930237 37.846981,956.923401 C46.358280,933.537659 54.822254,910.134705 63.581623,885.982788 C54.496655,869.277405 45.113907,852.121033 35.842827,834.904663 C33.691895,830.910400 30.458754,827.116516 32.462811,821.015564 C34.953167,820.806091 37.775993,820.363647 40.599148,820.361572 C95.906075,820.320740 151.213882,820.162476 206.519424,820.441772 C221.612137,820.518005 236.121826,824.064026 249.087814,832.322144 C259.332458,838.847046 265.929626,847.769104 268.587006,859.958069 C282.286041,922.793884 296.277161,985.566040 310.160767,1048.361572 C313.147858,1061.872314 316.111694,1075.387939 319.406097,1090.354370 C324.197937,1085.449463 328.098175,1081.675415 331.755157,1077.678711 C355.755066,1051.449951 379.647675,1025.122925 403.683655,998.927368 C424.353455,976.400269 445.229187,954.062073 465.900024,931.535889 C486.340729,909.260315 506.752197,886.955750 526.969177,864.477478 C548.819763,840.182922 576.297424,826.687012 608.219910,821.874329 C616.699829,820.595886 625.402283,820.435669 634.005493,820.396179 C668.321716,820.238586 702.639160,820.331177 736.956116,820.331177 C740.167175,820.331177 743.378174,820.331177 748.318787,820.331177 C747.170654,825.265442 746.727905,828.741882 745.559204,831.954346 C728.196899,879.679382 710.687256,927.350891 693.314392,975.072083 C666.064514,1049.924194 638.898926,1124.807129 611.670288,1199.666870 C609.857056,1204.652222 607.813171,1209.553467 605.938232,1215.246948 C583.291565,1216.000000 560.583069,1216.000000 537.564575,1215.402222 C533.513184,1212.971191 529.806091,1211.064087 526.025024,1209.316895 C503.511536,1198.913940 490.878235,1179.112305 501.279999,1151.430908 C517.132324,1109.244507 532.279236,1066.792114 547.607666,1024.409912 C555.496704,1002.597412 563.130615,980.692566 571.317749,958.400146 C571.755676,956.876404 571.755676,955.782043 571.755676,954.687683 C571.443420,954.635620 571.131104,954.583557 570.818848,954.531555 C570.441345,955.592163 570.063843,956.652771 569.041077,957.903687 C557.929932,969.235535 547.448181,980.362244 537.002258,991.522461 C522.465881,1007.052979 507.907379,1022.563293 493.447357,1038.164795 C473.802368,1059.360352 454.253082,1080.644775 434.641144,1101.871094 C414.573669,1123.590454 394.681641,1145.477539 374.303070,1166.901367 C365.644623,1176.004028 356.516571,1184.862793 346.569824,1192.485596 C334.104279,1202.038818 319.563080,1207.957275 304.347687,1212.066895 C302.492767,1212.567871 298.529938,1211.519287 300.000000,1216.000000 C272.624878,1216.000000 245.249756,1216.000000 217.119659,1215.184570 C198.654373,1128.969482 180.944046,1043.569580 163.233719,958.169739 C157.410858,968.589172 153.436646,979.016968 149.751328,989.545837 C145.490402,1001.719116 138.669434,1012.015808 129.002045,1020.632324 C104.093811,1042.832764 74.769661,1053.479858 41.716702,1054.260376 C28.487221,1054.572632 15.239446,1054.109985 2.000000,1054.000000 C2.000000,1052.500000 2.000000,1051.000000 2.000000,1048.750000 z"/>
			<g id="letter-e-1">
				<path fill="currentcolor" id="letter-e-1-1" d="M1092.000244,803.671509 C1152.248535,803.671509 1211.496704,803.671509 1271.467041,803.671509 C1270.488159,812.970398 1267.374023,820.531921 1263.587769,827.716614 C1252.560059,848.642883 1234.515747,861.994324 1213.829712,872.045166 C1193.208130,882.064819 1171.332642,886.478516 1148.300903,886.422607 C1055.004517,886.196106 961.707214,886.328491 868.410278,886.328491 C864.471680,886.328491 860.533081,886.328491 855.999390,886.328491 C855.301697,876.256592 859.520874,868.609558 863.400635,861.151978 C871.099182,846.354370 882.919250,835.158875 896.872742,826.329468 C920.089844,811.638367 945.153992,803.269348 973.046936,803.565796 C1012.360657,803.983643 1051.682007,803.671509 1092.000244,803.671509 z"/>
				<path fill="currentcolor" id="letter-e-1-2" d="M914.123047,965.671265 C1005.674316,965.767944 1096.244141,965.861328 1186.813843,966.010681 C1187.703369,966.012146 1188.591675,966.753784 1189.810547,967.296997 C1190.480469,974.197571 1187.252441,980.110474 1184.636841,986.029663 C1177.108398,1003.066650 1164.055054,1015.417114 1148.773560,1025.202759 C1124.766479,1040.575928 1098.255127,1048.308716 1069.649658,1048.318237 C982.069214,1048.347290 894.488770,1048.344482 806.908386,1048.270142 C803.497742,1048.267212 800.087891,1047.401978 796.076294,1046.856812 C799.040894,1031.590088 805.130249,1019.404114 814.627869,1008.837708 C835.014404,986.157227 861.041626,973.880981 890.441895,968.103821 C897.880615,966.642090 905.568359,966.447937 914.123047,965.671265 z"/>
				<path fill="currentcolor" id="letter-e-1-3" d="M794.937317,1216.000000 C796.543640,1213.238770 793.679260,1212.973389 792.185974,1212.182495 C785.479431,1208.631104 778.160278,1205.917358 772.143127,1201.446533 C757.536194,1190.593018 751.566528,1175.873657 755.706543,1157.760864 C756.957336,1152.288818 759.047119,1147.013306 760.454224,1141.570679 C762.133118,1135.076416 766.411987,1132.379517 772.792542,1132.336060 C774.790771,1132.322510 776.789185,1132.328857 778.787476,1132.328735 C872.041565,1132.328369 965.296082,1132.194458 1058.549438,1132.453003 C1075.135254,1132.499023 1091.578735,1134.449829 1106.753174,1142.483276 C1128.642700,1154.071899 1137.562134,1175.162598 1129.880005,1198.704834 C1128.134277,1204.055298 1125.888062,1209.242310 1123.936035,1215.252319 C1014.624878,1216.000000 905.249756,1216.000000 794.937317,1216.000000 z"/>
			</g>
			<g id="letter-t">
				<path fill="currentcolor" id="letter-t-top" d="M1390.679443,806.263489 C1400.763550,805.341248 1409.996826,803.785156 1419.231812,803.773621 C1547.173828,803.613586 1675.116089,803.665405 1803.058350,803.665405 C1806.989990,803.665405 1810.921509,803.665405 1816.284546,803.665405 C1812.967407,816.827698 1808.839111,828.073242 1801.526978,838.089417 C1786.212280,859.067261 1764.965820,871.596252 1741.047485,879.989563 C1725.634155,885.398376 1709.614136,887.740784 1693.179565,887.727600 C1566.570068,887.625916 1439.960571,887.672607 1313.351074,887.670288 C1299.413208,887.670044 1299.576416,887.715393 1303.890381,874.668457 C1313.503296,845.596008 1335.371704,828.541504 1361.672241,816.182617 C1370.622192,811.976990 1380.419189,809.574280 1390.679443,806.263489 z"/>
				<path fill="currentcolor" id="letter-t-bottom" d="M1356.937256,1216.000000 C1356.526001,1213.124878 1356.651611,1210.104248 1357.636475,1207.396118 C1381.553223,1141.634277 1405.624146,1075.928711 1429.514771,1010.157410 C1436.684814,990.418030 1450.757080,976.793762 1467.889038,965.884399 C1491.409546,950.906860 1517.018677,942.951355 1545.132935,943.621704 C1556.777466,943.899353 1568.434448,943.622742 1580.085083,943.700195 C1582.926392,943.719116 1585.765015,944.140381 1590.071655,944.498657 C1587.230713,952.443604 1584.854004,959.168396 1582.423828,965.873779 C1560.615601,1026.049561 1538.641479,1086.166016 1517.068359,1146.426025 C1509.524780,1167.497192 1495.299316,1182.481812 1476.942017,1194.284058 C1463.979126,1202.618164 1450.086060,1208.690918 1435.111938,1212.350342 C1433.619019,1212.715210 1432.318481,1213.867554 1431.464355,1215.327148 C1407.291504,1216.000000 1382.583130,1216.000000 1356.937256,1216.000000 z"/>
			</g>
			<path fill="currentcolor" id="letter-a" d="M1676.937378,1216.000000 C1677.695679,1212.545776 1678.740967,1208.525024 1681.183594,1205.721436 C1723.928833,1156.661133 1766.858276,1107.761353 1809.720581,1058.802734 C1864.593994,996.124573 1919.443359,933.425049 1974.624878,870.366760 C1968.805664,859.506042 1962.781250,848.844604 1957.318604,837.902710 C1951.921509,827.092590 1944.028809,817.397522 1941.008179,803.669434 C1945.692627,803.669434 1949.212769,803.669373 1952.732910,803.669373 C2015.021240,803.669373 2077.316895,804.201904 2139.593506,803.344788 C2158.264893,803.087708 2170.473145,811.368713 2180.531494,825.167603 C2190.261719,838.516724 2196.515869,853.660339 2199.820801,869.659912 C2204.436279,892.004211 2208.122559,914.557251 2211.619629,937.111938 C2216.538330,968.834961 2221.001953,1000.629639 2225.507812,1032.415283 C2230.525635,1067.813232 2235.330322,1103.241333 2240.310059,1138.644775 C2243.305420,1159.939697 2246.545410,1181.200684 2249.458008,1202.506836 C2249.984131,1206.353760 2249.454834,1210.345093 2249.706543,1215.134888 C2219.958252,1216.000000 2189.916260,1216.000000 2159.474121,1215.327759 C2157.033691,1213.726440 2155.030518,1212.704590 2152.947266,1211.885254 C2146.170410,1209.220093 2139.056152,1207.225830 2132.625488,1203.902100 C2109.944824,1192.179565 2097.685303,1173.814453 2095.468018,1147.853760 C2092.569092,1113.910889 2087.993164,1080.114136 2084.386475,1046.228271 C2080.007080,1005.081116 2075.903076,963.904724 2071.593262,922.750183 C2071.420166,921.097534 2070.359131,919.537903 2068.653320,915.312500 C2067.117676,918.270386 2066.693115,919.636719 2065.843506,920.644348 C2040.380127,950.839905 2014.908447,981.028442 1989.368774,1011.159241 C1950.307617,1057.242065 1911.096313,1103.197998 1872.149414,1149.376953 C1854.954834,1169.764648 1835.032227,1186.678345 1810.533081,1197.319580 C1796.914795,1203.234863 1782.422974,1207.130859 1768.366455,1212.055542 C1766.506470,1212.707153 1762.587036,1211.553467 1764.000000,1216.000000 C1735.291504,1216.000000 1706.583130,1216.000000 1676.937378,1216.000000 z"/>
		</g>
		<g id="text-color">
			<path fill="#BBFF00" id="letter-r" d="M2354.937256,1216.000000 C2360.666260,1196.879639 2367.145752,1177.691650 2374.034424,1158.651733 C2393.367188,1105.216431 2412.868408,1051.842285 2432.308105,998.445923 C2432.648682,997.510376 2433.061768,996.601440 2433.420654,995.672180 C2437.257568,985.738403 2437.256592,985.692505 2447.685303,985.684631 C2479.010010,985.660950 2510.334473,985.676086 2541.659180,985.676086 C2572.983887,985.676086 2604.311523,985.945557 2635.631836,985.573364 C2653.959473,985.355591 2672.007568,982.574280 2689.273926,976.004761 C2703.153076,970.724121 2715.377441,963.006531 2725.572510,952.002563 C2734.773438,942.071594 2740.147705,930.329163 2741.169434,917.167358 C2741.910889,907.616394 2738.017090,899.077209 2729.820312,892.986633 C2718.728516,884.745117 2705.933594,881.133057 2692.576660,880.484070 C2673.629150,879.563477 2654.614990,880.116699 2635.641357,879.598328 C2620.627686,879.188293 2605.874023,877.112122 2592.289795,869.932251 C2583.556641,865.316467 2576.180908,859.180603 2571.290771,850.563721 C2563.906006,837.551697 2556.807617,824.374817 2549.766602,811.172485 C2548.796143,809.352722 2548.852295,806.985413 2548.196045,803.676086 C2552.512451,803.676086 2555.774414,803.676086 2559.036133,803.676086 C2625.351074,803.676086 2691.667725,803.386414 2757.979736,803.813782 C2785.860352,803.993408 2812.781494,809.748901 2837.598633,823.107117 C2856.618896,833.344788 2871.466064,847.552734 2879.055176,868.390442 C2885.960693,887.349670 2884.389648,906.185669 2878.716553,925.050903 C2866.885742,964.389709 2841.070312,992.448975 2806.979248,1013.711548 C2783.375488,1028.433228 2757.584229,1038.126099 2730.986084,1045.843018 C2727.857910,1046.750610 2724.748779,1047.723267 2720.970459,1048.865479 C2724.694336,1060.829468 2728.180420,1072.230591 2731.791260,1083.591919 C2744.170898,1122.544922 2756.641357,1161.469360 2768.938232,1200.448364 C2770.396973,1205.072021 2773.042969,1209.743896 2771.285889,1215.444824 C2733.291504,1216.000000 2694.583008,1216.000000 2655.465820,1215.356201 C2651.810059,1213.211548 2648.613037,1211.589844 2645.308105,1210.230225 C2628.677734,1203.388794 2617.541260,1192.236328 2612.658203,1174.153809 C2603.146240,1138.929810 2592.494629,1104.013184 2582.269531,1068.982422 C2581.558105,1066.545654 2580.475342,1064.217285 2579.640869,1062.035889 C2568.299072,1062.035889 2557.708252,1062.035889 2546.918701,1062.035889 C2545.956299,1064.013916 2544.935791,1065.713989 2544.267822,1067.542847 C2534.931152,1093.105591 2525.189209,1118.532837 2516.489990,1144.311646 C2509.817383,1164.084473 2497.589600,1179.036743 2480.858643,1190.862061 C2467.143799,1200.555298 2452.129150,1207.392090 2436.011963,1211.974854 C2434.173828,1212.497681 2430.068604,1211.450928 2432.000000,1216.000000 C2406.624756,1216.000000 2381.249756,1216.000000 2354.937256,1216.000000 z"/>
			<path fill="#BBFF00" id="letter-i" d="M2904.937256,1216.000000 C2904.146729,1213.177368 2903.618164,1210.109985 2904.539062,1207.567871 C2926.825195,1146.053223 2949.281250,1084.600342 2971.673340,1023.123901 C2989.747070,973.502380 3007.715820,923.842346 3025.914795,874.266724 C3027.895752,868.870789 3027.654297,864.625366 3024.683594,859.489807 C3016.201172,844.825623 3008.353271,829.789429 3000.479980,814.781860 C2998.910645,811.790588 2998.337158,808.277161 2997.035645,804.151550 C3061.348145,804.151550 3124.187256,804.151550 3188.404297,804.151550 C3187.611328,807.971436 3187.317627,811.435425 3186.173096,814.590515 C3169.750000,859.862549 3153.178223,905.080505 3136.710449,950.336304 C3112.974365,1015.565735 3089.053223,1080.729492 3065.726074,1146.105225 C3058.156738,1167.319458 3043.783447,1182.235840 3025.659912,1194.176636 C3013.673340,1202.073975 3000.549072,1207.736450 2986.720947,1211.733887 C2984.635498,1212.336670 2982.772705,1213.709839 2981.403320,1215.363281 C2956.624756,1216.000000 2931.249756,1216.000000 2904.937256,1216.000000 z"/>
			<path fill="#BBFF00" id="letter-d" d="M3168.937256,1216.000000 C3170.972900,1198.230591 3178.005615,1182.283325 3190.418213,1169.154785 C3211.330566,1147.036499 3237.691406,1135.131104 3267.266357,1129.969482 C3274.735107,1128.666138 3282.457031,1128.465576 3290.068604,1128.395630 C3311.732178,1128.196167 3333.402100,1128.089722 3355.063721,1128.376709 C3394.989258,1128.905640 3432.881348,1120.267456 3469.066895,1103.725342 C3499.760498,1089.693970 3526.780518,1070.757080 3547.619873,1043.809204 C3561.867188,1025.385376 3572.011719,1004.924011 3576.473877,981.982239 C3585.123047,937.516296 3567.812744,906.950378 3529.117188,887.957642 C3507.320312,877.259094 3483.838867,872.713989 3459.659180,872.402649 C3433.331543,872.063599 3406.996094,872.307617 3380.664062,872.333984 C3369.256592,872.345398 3358.169678,870.678711 3347.456055,866.611328 C3334.599365,861.730347 3323.904785,854.198486 3317.158936,841.924744 C3308.669189,826.477356 3300.221680,811.003479 3292.031494,795.396301 C3288.445557,788.563171 3289.796631,786.484009 3297.427246,786.369690 C3308.424316,786.204956 3319.425293,786.325745 3330.424805,786.325745 C3392.421631,786.325500 3454.422607,785.906921 3516.414062,786.481079 C3554.223877,786.831238 3591.077637,793.665527 3626.172119,808.200989 C3653.610107,819.565247 3678.045898,835.450989 3696.458984,859.211792 C3719.654785,889.144531 3727.641602,923.187073 3722.729004,960.554504 C3716.287354,1009.550232 3693.469727,1050.515503 3660.844482,1086.548828 C3609.012695,1143.794434 3543.644531,1178.580933 3470.321777,1199.469116 C3450.900146,1205.001831 3430.765137,1208.022461 3410.977051,1212.286499 C3408.857666,1212.743164 3406.868164,1213.803833 3405.409180,1215.292236 C3327.291504,1216.000000 3248.583008,1216.000000 3168.937256,1216.000000 z"/>
			<g id="letter-e-2">
				<path fill="#BBFF00" id="letter-e-2-1" d="M4018.000000,803.678284 C4097.230957,803.678284 4175.462402,803.678284 4253.900879,803.678284 C4254.735840,812.115845 4251.241699,818.344910 4248.348145,824.533508 C4238.451660,845.700378 4221.249512,859.577209 4201.090820,870.095215 C4180.437012,880.871460 4158.438965,886.396118 4134.995117,886.368347 C4040.026855,886.255920 3945.058594,886.333740 3850.090332,886.276733 C3846.354492,886.274475 3842.619385,885.612427 3838.160156,885.189148 C3842.100830,866.703552 3849.980713,851.870483 3862.735352,840.235962 C3889.334473,815.972595 3920.668213,803.260620 3957.020752,803.640930 C3977.011719,803.850098 3997.006836,803.678284 4018.000000,803.678284 z"/>
				<path fill="#BBFF00" id="letter-e-2-2" d="M4173.392578,971.094971 C4165.687988,1000.891479 4145.435547,1018.802795 4120.184082,1032.048828 C4099.235840,1043.037720 4076.715576,1048.293091 4053.053711,1048.304688 C3965.770020,1048.347778 3878.486084,1048.331665 3791.202393,1048.286987 C3787.646240,1048.285156 3784.090332,1047.769653 3779.471191,1047.410889 C3781.156494,1036.458618 3784.808350,1027.403076 3790.194580,1019.031067 C3801.723633,1001.110596 3818.293701,989.030090 3837.101562,979.928955 C3858.073975,969.780396 3880.358643,965.537720 3903.708008,965.594849 C3989.325684,965.804443 4074.943848,965.676880 4160.562012,965.682068 C4163.559570,965.682251 4166.559082,965.689819 4169.554199,965.792908 C4172.399414,965.890930 4173.741211,967.454041 4173.392578,971.094971 z"/>
				<path fill="#BBFF00" id="letter-e-2-3" d="M3778.937256,1216.000000 C3780.351074,1213.112549 3777.552490,1212.906860 3775.966797,1212.325317 C3767.185303,1209.104492 3758.824219,1205.373535 3751.909668,1198.662354 C3739.294434,1186.418213 3734.752686,1171.928223 3739.613037,1155.095947 C3746.887207,1129.904907 3746.174072,1132.322266 3768.073975,1132.322754 C3859.354004,1132.324951 3950.634277,1132.243042 4041.913818,1132.404297 C4056.881348,1132.430786 4071.938477,1133.778198 4085.595215,1140.489258 C4092.634766,1143.948853 4099.757324,1148.375000 4105.031250,1154.048340 C4115.083008,1164.861816 4118.750977,1178.223022 4114.715332,1192.861572 C4112.690430,1200.206787 4109.839355,1207.324219 4107.681152,1215.272339 C3998.624756,1216.000000 3889.249756,1216.000000 3778.937256,1216.000000 z"/>
			</g>
			<path fill="#BBFF00" id="letter-s" d="M4206.937500,1216.000000 C4206.146973,1213.176025 4205.666504,1210.140259 4206.537598,1207.560791 C4214.699219,1183.391357 4232.408691,1167.690552 4253.956543,1155.928711 C4275.596191,1144.117310 4298.766113,1137.955933 4323.695312,1138.227295 C4359.357910,1138.615601 4395.033203,1138.742310 4430.691406,1138.187256 C4456.651855,1137.783081 4481.483398,1132.281860 4503.392090,1117.232788 C4511.780273,1111.470825 4518.552246,1104.307373 4522.683105,1094.890747 C4528.491211,1081.650391 4525.219238,1070.148071 4513.398926,1061.760010 C4501.041504,1052.990967 4486.677246,1050.437988 4472.163086,1048.210449 C4441.347656,1043.480713 4410.420898,1039.325439 4379.784668,1033.620850 C4358.760742,1029.706055 4338.935059,1021.744629 4321.358887,1009.019104 C4298.697754,992.612610 4286.361328,970.846375 4288.499023,942.497437 C4290.032227,922.161804 4298.157227,903.915894 4310.072266,887.484131 C4330.430664,859.408325 4357.129883,838.804565 4387.658203,822.959534 C4424.941406,803.608948 4464.464844,791.573120 4506.353027,787.683655 C4516.590820,786.733093 4526.877930,785.789490 4537.144531,785.763306 C4600.144043,785.602722 4663.143066,785.706543 4727.071289,785.861206 C4728.000000,790.741150 4728.000000,795.482239 4727.394531,800.592041 C4725.942383,801.959290 4724.877930,802.842896 4724.283691,803.973633 C4716.325195,819.115234 4704.444824,830.553711 4690.367676,839.880371 C4666.425293,855.743286 4639.972656,863.475586 4611.335938,863.638184 C4583.672852,863.795227 4556.009277,863.689209 4528.345703,863.666931 C4504.605957,863.647827 4482.115234,868.864624 4461.433105,880.577637 C4447.583008,888.421509 4435.667969,898.418457 4430.916016,914.592041 C4427.771973,925.294678 4430.563477,934.844910 4440.201172,940.665649 C4447.174805,944.877197 4455.034668,948.603760 4462.958496,950.076416 C4487.725098,954.679626 4512.679688,958.318787 4537.619141,961.932434 C4559.020020,965.033325 4580.221191,968.834351 4600.604004,976.294250 C4613.471680,981.003967 4625.651855,987.012573 4636.736816,995.190613 C4668.100098,1018.328796 4677.904785,1051.344971 4664.145020,1087.795776 C4654.577637,1113.140991 4637.348145,1132.719482 4616.992676,1149.779663 C4587.194824,1174.753784 4552.904297,1191.360352 4515.740723,1201.964966 C4500.457031,1206.325928 4484.675781,1208.940674 4469.120605,1212.350952 C4467.163574,1212.780151 4464.138672,1212.302368 4466.000000,1216.000000 C4379.958496,1216.000000 4293.916504,1216.000000 4206.937500,1216.000000 z"/>
		</g>
	</g>
</svg>
